<svg width="800" height="800" viewBox="0 0 800 800" fill="none" xmlns="http://www.w3.org/2000/svg">
<g clip-path="url(#clip0_1285_176)">
<path d="M448.339 484.43V427.646C448.339 405.256 430.123 387.041 407.734 387.041C385.344 387.041 367.129 405.256 367.129 427.646V478.915C367.129 540.698 344.368 600.016 303.036 645.939L246.049 709.258C241.261 714.578 241.693 722.771 247.013 727.561C252.332 732.349 260.525 731.917 265.315 726.597L322.301 663.278C367.922 612.586 393.047 547.112 393.047 478.915V427.646C393.047 419.547 399.635 412.959 407.734 412.959C415.832 412.959 422.421 419.547 422.421 427.646V484.43C422.421 560.461 394.255 633.315 343.11 689.574L287.561 750.678C282.747 755.972 283.138 764.171 288.434 768.985C290.917 771.243 294.035 772.354 297.145 772.354C300.67 772.354 304.181 770.925 306.739 768.112L362.286 707.008C417.778 645.968 448.339 566.922 448.339 484.43Z" fill="white" fill-opacity="0.98"/>
<path d="M503.63 427.645C503.63 374.768 460.611 331.749 407.734 331.749C354.856 331.749 311.837 374.768 311.837 427.645V478.914C311.837 527.016 294.116 573.197 261.938 608.95L221.425 653.966C216.637 659.286 217.069 667.479 222.389 672.269C227.709 677.057 235.901 676.622 240.691 671.305L281.204 626.289C317.672 585.769 337.757 533.43 337.757 478.914V427.645C337.757 389.059 369.149 357.667 407.735 357.667C446.322 357.667 477.714 389.059 477.714 427.645V484.43C477.714 574.242 444.442 660.307 384.024 726.766L337.156 778.324C332.34 783.618 332.731 791.816 338.026 796.63C340.509 798.889 343.628 800 346.738 800C350.263 800 353.774 798.571 356.331 795.758L403.201 744.2C467.963 672.96 503.63 580.706 503.63 484.43V427.645Z" fill="white" fill-opacity="0.98"/>
<path d="M558.921 427.646C558.921 344.28 491.099 276.458 407.733 276.458C324.368 276.458 256.546 344.28 256.546 427.646V478.915C256.546 513.334 243.865 546.379 220.839 571.962L184.361 612.494C179.573 617.814 180.005 626.008 185.325 630.798C190.643 635.585 198.838 635.15 203.626 629.833L240.105 589.301C267.421 558.951 282.463 519.748 282.463 478.915V427.646C282.463 358.571 338.659 302.376 407.733 302.376C476.808 302.376 533.003 358.571 533.003 427.646V484.43C533.003 588.03 494.624 687.302 424.934 763.959L411.963 778.227C407.149 783.523 407.54 791.72 412.836 796.534C415.319 798.791 418.439 799.903 421.548 799.903C425.073 799.903 428.584 798.474 431.141 795.661L444.11 781.393C518.146 699.953 558.92 594.492 558.92 484.43V427.646H558.921Z" fill="white" fill-opacity="0.98"/>
<path d="M201.254 427.646C201.254 434.805 207.056 440.605 214.213 440.605C221.37 440.605 227.172 434.805 227.172 427.646C227.172 384.009 243.015 341.856 271.783 308.951C300.285 276.351 339.402 255.033 381.928 248.923C389.012 247.905 393.929 241.336 392.912 234.254C391.894 227.169 385.32 222.259 378.242 223.27C329.586 230.26 284.848 254.63 252.271 291.893C219.372 329.521 201.254 377.733 201.254 427.646Z" fill="white" fill-opacity="0.98"/>
<path d="M227.172 478.915C227.172 471.756 221.37 465.956 214.213 465.956C207.056 465.956 201.254 471.756 201.254 478.915C201.254 499.653 193.615 519.559 179.744 534.972L147.296 571.027C142.508 576.346 142.94 584.539 148.26 589.329C150.738 591.558 153.836 592.655 156.926 592.655C160.471 592.655 164.005 591.207 166.562 588.365L199.009 552.311C217.169 532.131 227.172 506.067 227.172 478.915Z" fill="white" fill-opacity="0.98"/>
<path d="M588.777 594.597C581.85 592.793 574.773 596.932 572.959 603.853C568.174 622.133 562.224 640.304 555.265 657.863C552.629 664.517 555.886 672.049 562.54 674.684C564.107 675.304 565.721 675.598 567.31 675.598C572.468 675.598 577.346 672.496 579.362 667.409C586.704 648.878 592.985 629.704 598.033 610.414C599.844 603.492 595.699 596.41 588.777 594.597Z" fill="white" fill-opacity="0.98"/>
<path d="M545.643 274.094C540.319 269.306 532.126 269.745 527.341 275.067C522.557 280.388 522.992 288.582 528.314 293.366C566.433 327.633 588.293 376.575 588.293 427.645V484.43C588.293 505.981 586.807 527.699 583.875 548.981C582.899 556.072 587.855 562.61 594.944 563.587C595.544 563.67 596.14 563.709 596.729 563.709C603.101 563.709 608.656 559.006 609.55 552.516C612.642 530.066 614.211 507.158 614.211 484.428V427.645C614.213 369.235 589.22 313.268 545.643 274.094Z" fill="white" fill-opacity="0.98"/>
<path d="M485.06 264.494C486.859 265.351 488.754 265.756 490.622 265.756C495.465 265.756 500.112 263.027 502.332 258.364C505.409 251.903 502.664 244.169 496.203 241.094C477.532 232.204 457.687 226.207 437.221 223.268C430.126 222.257 423.569 227.169 422.551 234.252C421.534 241.334 426.451 247.903 433.535 248.921C451.415 251.49 468.749 256.729 485.06 264.494Z" fill="white" fill-opacity="0.98"/>
<path d="M407.733 165.875C402.885 165.875 397.981 166.01 393.156 166.276C386.009 166.67 380.535 172.783 380.929 179.928C381.325 187.074 387.431 192.577 394.583 192.152C398.935 191.912 403.359 191.791 407.732 191.791C537.781 191.791 643.585 297.593 643.585 427.644V484.429C643.585 491.587 649.387 497.388 656.544 497.388C663.701 497.388 669.503 491.587 669.503 484.429V427.646C669.505 283.306 552.074 165.875 407.733 165.875Z" fill="white" fill-opacity="0.98"/>
<path d="M266.042 236.187C268.594 236.187 271.173 235.433 273.428 233.866C294.988 218.874 318.667 207.68 343.809 200.591C350.698 198.649 354.709 191.489 352.766 184.601C350.824 177.714 343.662 173.709 336.777 175.644C308.855 183.516 282.563 195.945 258.633 212.584C252.756 216.671 251.305 224.747 255.391 230.621C257.909 234.246 261.941 236.187 266.042 236.187Z" fill="white" fill-opacity="0.98"/>
<path d="M171.88 478.915V427.646C171.88 367.361 194.711 309.947 236.165 265.979C241.074 260.771 240.834 252.57 235.626 247.66C230.419 242.749 222.216 242.993 217.307 248.199C171.3 296.995 145.962 360.726 145.962 427.646V478.915C145.962 485.97 143.364 492.741 138.647 497.982L122.667 515.736C117.879 521.056 118.311 529.249 123.631 534.037C126.107 536.268 129.207 537.365 132.297 537.365C135.842 537.365 139.374 535.919 141.933 533.077L157.912 515.323C166.92 505.312 171.88 492.382 171.88 478.915Z" fill="white" fill-opacity="0.98"/>
<path d="M708.339 326.745C694.125 284.506 671.537 246.346 641.201 213.325C636.358 208.055 628.161 207.706 622.891 212.549C617.621 217.392 617.273 225.589 622.115 230.861C649.98 261.192 670.726 296.233 683.775 335.01C685.596 340.423 690.645 343.839 696.055 343.839C697.425 343.839 698.82 343.619 700.19 343.158C706.972 340.876 710.621 333.527 708.339 326.745Z" fill="white" fill-opacity="0.98"/>
<path d="M510.146 127.554C503.378 125.237 496.007 128.847 493.69 135.62C491.373 142.391 494.984 149.759 501.755 152.074C530.331 161.852 557.159 176.017 581.496 194.181C583.824 195.917 586.542 196.753 589.237 196.753C593.187 196.753 597.088 194.955 599.634 191.544C603.915 185.809 602.733 177.688 596.999 173.408C570.498 153.634 541.277 138.205 510.146 127.554Z" fill="white" fill-opacity="0.98"/>
<path d="M206.379 217.551C260.891 165.285 332.4 136.501 407.734 136.501C421.722 136.501 435.789 137.508 449.541 139.492C456.63 140.525 463.196 135.601 464.219 128.516C465.242 121.432 460.33 114.863 453.245 113.84C438.268 111.68 422.956 110.583 407.734 110.583C325.683 110.583 247.803 141.928 188.442 198.844C129.266 255.583 94.6588 331.725 90.9957 413.244C90.6744 420.394 96.2104 426.452 103.359 426.771C103.557 426.782 103.754 426.785 103.951 426.785C110.84 426.785 116.575 421.36 116.888 414.409C120.248 339.571 152.031 269.66 206.379 217.551Z" fill="white" fill-opacity="0.98"/>
<path d="M407.733 55.292C378.753 55.292 349.876 58.651 321.903 65.2756C314.938 66.924 310.631 73.908 312.279 80.8713C313.929 87.8345 320.913 92.1438 327.877 90.4937C353.895 84.3356 380.761 81.2099 407.733 81.2099C502.759 81.2099 591.46 119.069 657.496 187.81C660.041 190.459 663.438 191.793 666.843 191.793C670.073 191.793 673.307 190.594 675.82 188.18C680.981 183.221 681.147 175.017 676.188 169.858C641.781 134.041 601.364 105.865 556.063 86.117C509.141 65.6626 459.236 55.292 407.733 55.292Z" fill="white" fill-opacity="0.98"/>
<path d="M116.643 216.681C119.013 218.536 121.828 219.436 124.624 219.436C128.472 219.436 132.28 217.731 134.836 214.467C171.769 167.293 220.391 130.291 275.444 107.457C282.054 104.715 285.192 97.1332 282.45 90.5224C279.708 83.9116 272.123 80.7704 265.515 83.5159C206.352 108.053 154.106 147.81 114.429 198.486C110.016 204.124 111.008 212.269 116.643 216.681Z" fill="white" fill-opacity="0.98"/>
<path d="M228.048 66.9114C229.938 66.9114 231.858 66.4968 233.672 65.619C288.234 39.2743 346.797 25.9179 407.733 25.9179C439.488 25.9179 471.115 29.6536 501.731 37.0212C508.685 38.6903 515.687 34.4121 517.361 27.454C519.035 20.4959 514.752 13.4963 507.792 11.822C475.194 3.97754 441.529 0 407.733 0C342.862 0 280.509 14.2238 222.405 42.279C215.96 45.3909 213.257 53.1387 216.369 59.5836C218.603 64.2125 223.23 66.9114 228.048 66.9114Z" fill="white" fill-opacity="0.98"/>
<path d="M555.895 54.2257C569.254 59.5458 582.478 65.6624 595.197 72.4028C597.13 73.4292 599.207 73.9147 601.253 73.9147C605.897 73.9147 610.388 71.411 612.714 67.0205C616.064 60.6965 613.655 52.8538 607.331 49.5017C593.79 42.3259 579.71 35.8136 565.483 30.148C558.832 27.4991 551.297 30.7441 548.648 37.3911C546.001 44.04 549.246 51.5786 555.895 54.2257Z" fill="white" fill-opacity="0.98"/>
</g>
<defs>
<clipPath id="clip0_1285_176">
<rect width="800" height="800" fill="white"/>
</clipPath>
</defs>
</svg>
